<svg width="25" height="20" viewBox="0 0 25 20" fill="none" xmlns="http://www.w3.org/2000/svg">
<path fill-rule="evenodd" clip-rule="evenodd" d="M0.243164 1.25C0.243164 0.835786 0.578951 0.5 0.993164 0.5H23.4932C23.9074 0.5 24.2432 0.835786 24.2432 1.25C24.2432 1.66421 23.9074 2 23.4932 2H0.993164C0.578951 2 0.243164 1.66421 0.243164 1.25ZM0.243164 10C0.243164 9.58579 0.578951 9.25 0.993164 9.25H23.4932C23.9074 9.25 24.2432 9.58579 24.2432 10C24.2432 10.4142 23.9074 10.75 23.4932 10.75H0.993164C0.578951 10.75 0.243164 10.4142 0.243164 10ZM0.993164 18C0.578951 18 0.243164 18.3358 0.243164 18.75C0.243164 19.1642 0.578951 19.5 0.993164 19.5H23.4932C23.9074 19.5 24.2432 19.1642 24.2432 18.75C24.2432 18.3358 23.9074 18 23.4932 18H0.993164Z" fill="#0C91D8"/>
</svg>
