<svg width="22" height="22" viewBox="0 0 22 22" fill="none" xmlns="http://www.w3.org/2000/svg">
<path fill-rule="evenodd" clip-rule="evenodd" d="M15.556 17.0166C13.9494 18.2612 11.9328 19.002 9.74316 19.002C4.49646 19.002 0.243164 14.7487 0.243164 9.50195C0.243164 4.25525 4.49646 0.00195312 9.74316 0.00195312C14.9899 0.00195312 19.2432 4.25525 19.2432 9.50195C19.2432 12.1998 18.1186 14.635 16.3127 16.3643L21.0928 21.1444C21.2881 21.3397 21.2881 21.6563 21.0928 21.8515C20.8975 22.0468 20.581 22.0468 20.3857 21.8515L15.5967 17.0625C15.582 17.0479 15.5685 17.0325 15.556 17.0166ZM18.2432 9.50195C18.2432 14.1964 14.4376 18.002 9.74316 18.002C5.04874 18.002 1.24316 14.1964 1.24316 9.50195C1.24316 4.80753 5.04874 1.00195 9.74316 1.00195C14.4376 1.00195 18.2432 4.80753 18.2432 9.50195Z" fill="black"/>
</svg>
